@startuml
title Console

legend top
https://github.com/rstudio/gary-uml/blob/master/Console.puml

Major GWT classes involved in IDE Console

Last updated: 2020-06-04
endlegend

interface Console_Display {
    + bringToFront()
    + focus()
    + ensureCursorVisible()
    + getConsoleInterruptButton(): IsWidget
    + getConsoleClearButton(): IsWidget
    + getProfilerInterruptButton(): IsWidget
    + enterMode(ConsoleMode)
    + leaveMode(ConsoleMode)
    + mode(): ConsoleMode
    + showProgress(LocalJobProgress)
}

interface ShellOutputWriter {
    + consoleWriteError()
    + consoleWriteExtendedError()
    + consoleWriteOutput()
    + consoleWritePrompt()
}

interface InputEditorDisplay {
   + hasSelection(): boolean
   + getSelection(): InputEditorSelection
   + setSelection(InputEditorSelection)
   + getSelectionValue(): String
   + getCursorBounds()
   + getPositionBounds(InputEditorPosition)
   + getBounds()
   + setFocus()
   + isFocused()
   + replaceSelection()
   + isSelectionCollapsed()
   + clear()
   + insertCode()
   + collapseSelection()
   + getStart(): InputEditorSelection
   + getEnd(): InputEditorSelection
   + getCurrentLineNum()
   + getCurrentLineCount()
   + isCursorAtEnd()
   + getCursorPosition()
   + setCursorPosition()
   + getLanguageMode()
   + goToLineStart()
   + goToLineEnd()
   + addPasteHandler()
}

class VirtualConsole {
}

class ConsoleOutputWriter {
   - output_: PreWidget
   - virtualConsole_: VirtualConsole
}
VirtualConsole --* ConsoleOutputWriter

interface ShellDisplay {
   + consoleWriteInput()
   + consolePrompt()
   + ensureInputVisible()
   + getInputEditorDisplay(): InputEditorDisplay
   + getConsoleOutputWriter(): ConsoleOutputWriter
   + clearOutput()
   + processCommandEntry(): String
   + getCharacterWidth(): int
   + isPromptEmpty(): boolean
   + getPromptText(): string
   + setReadOnly()
   + setSuppressPendingInput()
   + playbackActions(List<ConsoleAction>)
   + getMaxOutputLines(): int
   + setMaxOutputLines()
   + setTextInputAriaLabel()
   + addCapturingKeyDownHandler()
   + addCapturingKeyUpHandler()
   + getShellWidget(): Widget
   + enableLiveReporting()
   + clearLiveRegion()
}

ShellOutputWriter <|-- ShellDisplay

class Console {
    - view_: Console_Display
}

class ConsolePane << WorkbenchPane >> {
    - shell_ : Shell
}

Console_Display <|.. ConsolePane

class Shell {
    - view_: Shell_Display
    - historyCompletion_: HistoryCompletionManager
    - keyDownPreviewHandlers_[];
    - keyPressPreviewHandlers_[];
    + getDisplay(): Shell_Display
}

interface Shell_Display {
    + onBeforeUnselected()
    + onBeforeSelected()
    + onSelected()
}

Shell --* ConsolePane
Console_Display --* Console

class ShellWidget << Composite >> {
    # input_: AceEditor
    - output_: ConsoleOutputWriter
    - pendingInput_: PreWidget
    + /getInputEditorDisplay(): InputEditorDisplay
}

ShellDisplay <|.. ShellWidget

class ShellPane {
    # / input_: AceEditor
    + /getInputEditorDisplay(): InputEditorDisplay
}

ShellWidget <|-- ShellPane
Shell_Display <|.. ShellPane
ShellDisplay <|-- Shell_Display
Shell_Display --* Shell
class AceEditor
InputEditorDisplay <|.. AceEditor

class ConsoleProgressWidget
ShellWidget <|-- ConsoleProgressWidget
ShellDisplay <|.. ConsoleProgressWidget

AceEditor --* ShellWidget
ConsoleOutputWriter --* ShellWidget
Console <.. ConsolePane : creates

' Completion features
'''''''''''''''''''''''''''''''''''

class CompletionRequester

interface KeyDownPreviewHandler
interface KeyPressPreviewHandler

interface CompletionManager {
   + goToHelp()
   + goToDefinition()
   + codeCompletion()
   + close()
   + onPaste()
   + detach()
}

KeyDownPreviewHandler <|.. CompletionManager
KeyPressPreviewHandler <|.. CompletionManager

class RCompletionManager {
    - requester_: CompletionRequester
    - popup_: CompletionPopupDisplay
}
CompletionManager <|.. RCompletionManager

CompletionRequester --* RCompletionManager

interface CompletionPopupDisplay {
    + clearCompletions()
    + showCompletionValues()
    + showErrorMessage()
    + hide()
    + isShowing()
    + setPopupPosition()
    + placeOffscreen()
    + isOffscreen()
    + getPopupLeft()
    + getPopupTop()
    + getOffsetHeight()
    + getSelectedValue()
    + getLastSelectedValue()
    + getSelectionRect()
    + selectPrev()
    + selectNext()
    + selectPrevPage()
    + selectNextPage()
    + selectFirst()
    + selectLast()
    + setHelpVisible()
    + displayHelp()
    + displayParameterHelp()
    + displayPackageHelp()
    + displayDataHelp()
    + displaySnippetHelp()
    + clearHelp()
    + isHelpVisible()
    + hasCompletions()
    + numAvailableCompletions()
    + getItems(): QualifiedName[]
}

class CompletionPopupPanel

CompletionPopupDisplay <|.. CompletionPopupPanel

Shell ..> RCompletionManager: creates
Shell ..> KeyPressPreviewHandler
Shell ..> KeyDownPreviewHandler
Shell *-- HistoryCompletionManager

CompletionPopupDisplay --* RCompletionManager

class HistoryCompletionManager
KeyDownPreviewHandler <|.. HistoryCompletionManager
KeyPressPreviewHandler <|.. HistoryCompletionManager

class CompletionListPopupPanel<HistoryMatch>
HistoryCompletionManager *-- CompletionListPopupPanel

@enduml
